Coordinates
version=1
nRows=13
nColumns=36
inDegrees=yes

Units are S.I. units (second, meters, Newtons, ...)
If the header above contains a line with 'inDegrees', this indicates whether rotational values are in degrees (yes) or radians (no).

endheader
time	pelvis_tilt	pelvis_list	pelvis_rotation	pelvis_tx	pelvis_ty	pelvis_tz	hip_flexion_r	hip_adduction_r	hip_rotation_r	knee_angle_r	knee_angle_r_beta	ankle_angle_r	subtalar_angle_r	mtp_angle_r	hip_flexion_l	hip_adduction_l	hip_rotation_l	knee_angle_l	knee_angle_l_beta	ankle_angle_l	subtalar_angle_l	mtp_angle_l	lumbar_extension	lumbar_bending	lumbar_rotation	arm_flex_r	arm_add_r	arm_rot_r	elbow_flex_r	pro_sup_r	arm_flex_l	arm_add_l	arm_rot_l	elbow_flex_l	pro_sup_l
      1.48333330	    -40.54937046	     -0.58242181	      3.52389810	     -0.98599426	      1.09265475	     -0.08494137	     75.18243159	      2.04440212	      9.45093057	     59.34689097	      1.03579865	     19.28859012	    -27.41072222	     -7.49999987	     76.37218721	      3.84368622	      7.09661362	     60.84911004	      1.06201732	     18.04138857	    -18.49932256	     -7.49999987	     -6.33320528	      2.76401415	     -3.15997149	      9.13289496	    -14.42936576	      0.90749480	     29.81063594	     79.84742154	     12.78171623	    -18.47562949	     14.57941601	     24.60544780	     67.23882687
      1.48750000	    -40.60996838	     -0.48817095	      3.43872395	     -0.98733902	      1.09407876	     -0.08449879	     75.49808700	      1.86716106	      9.36668805	     59.13430512	      1.03208833	     19.16541702	    -26.44370186	     -7.49999987	     76.61668757	      3.99524244	      7.26737758	     60.83783305	      1.06182050	     17.04223313	    -19.70782060	     -7.49999987	     -6.78136614	      2.78935583	     -3.09098885	      8.47243128	    -14.73035422	      0.29114433	     29.53794932	     79.50051775	     11.90470752	    -18.47430812	     14.05358181	     23.66110054	     67.07825446
      1.49166670	    -40.70273007	     -0.41486168	      3.42643540	     -0.98698002	      1.09358541	     -0.08671660	     75.51603128	      1.64567420	      9.24987507	     58.83719032	      1.02690269	     19.21249290	    -25.57711345	     -7.49999987	     76.74156313	      4.18492439	      7.38571063	     60.69048309	      1.05924875	     16.08951805	    -20.82090889	     -7.49999987	     -7.00691535	      2.90358191	     -3.07432829	      7.41784404	    -15.14738573	     -0.36225369	     29.25840334	     78.97836519	     10.69299844	    -18.33772675	     13.47623816	     22.43719946	     66.79268751
      1.49583330	    -40.84905754	     -0.24153890	      3.45006956	     -0.98653167	      1.08999459	     -0.09043898	     75.70064512	      1.17810178	      9.21106821	     58.99052073	      1.02957881	     19.60330154	    -24.69541989	     -7.49999987	     76.94042738	      4.56321719	      7.24573523	     60.69213194	      1.05927753	     16.26624843	    -21.00049663	     -7.49999987	     -6.88027922	      3.05724055	     -3.24243830	      5.96447272	    -15.72083306	     -1.10996729	     29.15673302	     78.37265042	      9.01040706	    -18.16591711	     12.85641586	     21.63262398	     66.49358142
      1.50000000	    -40.73517615	     -0.06043423	      3.60596792	     -0.98299181	      1.09476818	     -0.09379364	     75.00631820	      0.50062522	      9.13743327	     58.50813511	      1.02115960	     19.83238778	    -24.03636324	     -7.49999987	     76.45890420	      5.06044098	      7.11965033	     60.36626011	      1.05359000	     15.62213141	    -21.93180687	     -7.49999987	     -7.13704216	      3.17005701	     -3.46062684	      4.54973593	    -16.06436610	     -2.23040562	     28.76355937	     77.79560798	      7.87487243	    -17.66156663	     12.01472134	     20.04216680	     66.14989880
      1.50416670	    -40.56675776	      0.18394006	      3.65407254	     -0.98463892	      1.09527826	     -0.09365786	     74.53728988	     -0.09491773	      8.96575261	     58.24088853	      1.01649526	     19.75046061	    -23.89510778	     -7.49999987	     76.11529098	      5.37394347	      6.87528809	     60.17280500	      1.05021357	     15.42965839	    -21.99164273	     -7.49999987	     -7.57828965	      3.19367165	     -3.75454257	      3.39786600	    -16.38595837	     -2.74459043	     28.40042708	     77.85079722	      6.66380569	    -17.53421385	     11.73254411	     19.08103173	     66.13399550
      1.50833330	    -40.47886579	      0.48758140	      3.55394796	     -0.98423560	      1.09576619	     -0.09568210	     74.37360118	     -0.68544324	      8.79029499	     58.12350443	      1.01444653	     19.44305050	    -24.18233628	     -7.49999987	     75.85354557	      5.67429460	      6.68462029	     59.99567199	      1.04712201	     14.91310746	    -22.56186574	     -7.49999987	     -7.85287394	      3.23958675	     -3.77260006	      2.19334028	    -16.69874111	     -3.64522955	     28.09999654	     76.94720744	      5.53806583	    -17.37207534	     11.24377624	     18.33517930	     65.71164139
      1.51250000	    -40.24515567	      0.89084066	      3.46444409	     -0.98478213	      1.09422559	     -0.09953223	     74.46907063	     -1.28090385	      8.68433347	     58.54475359	      1.02179871	     19.60154230	    -24.02909102	     -7.49999987	     75.73303518	      6.13761225	      6.38382747	     60.17119320	      1.05018544	     14.67864114	    -23.12683599	     -7.49999987	     -8.25329389	      3.10627834	     -3.68938049	      1.03699486	    -16.87495435	     -5.00925751	     27.43946346	     75.18041110	      4.48325796	    -17.10044006	     10.48710409	     17.39294171	     64.93303215
      1.51666670	    -40.22389284	      1.25700107	      3.38286790	     -0.98701262	      1.09548446	     -0.10224651	     74.71224977	     -1.76043569	      8.76900253	     58.62927823	      1.02327394	     19.96141669	    -22.91307696	     -7.49999987	     75.75526879	      6.52641615	      6.08857569	     60.08752326	      1.04872512	     14.23833294	    -24.09343020	     -7.49999987	     -8.55815093	      3.09399500	     -3.68732709	      0.05302101	    -17.25605668	     -5.80046105	     26.97303101	     75.29278476	      3.62464844	    -17.03736419	     10.57107863	     16.42276745	     65.05444309
      1.52083330	    -40.08338070	      1.39005374	      3.33847071	     -0.98331041	      1.09590272	     -0.10017982	     74.45673930	     -1.81890923	      8.91643789	     58.49257407	      1.02088801	     20.02214603	    -22.78321316	     -7.49999987	     75.42547150	      6.57653958	      6.02757907	     60.01990742	      1.04754500	     14.21632209	    -24.28695471	     -7.49999987	     -8.80172354	      3.14648340	     -3.61458996	     -1.25983170	    -17.47198394	     -5.89945172	     26.45011528	     75.29761765	      2.14890859	    -17.13033856	     10.59216639	     15.90129215	     65.05486847
      1.52500000	    -40.08249348	      1.73458896	      3.36177795	     -0.98159428	      1.09918352	     -0.09839571	     74.17829375	     -1.86917356	      9.14730120	     58.17940598	      1.01542219	     20.25193914	    -22.22405472	     -7.49999987	     74.98972585	      6.72740318	      5.85464121	     59.49413716	      1.03836858	     13.31937739	    -25.22923717	     -7.49999987	     -8.89753275	      2.79806651	     -3.61117995	     -2.39472475	    -17.37690783	     -6.62642144	     25.50374597	     74.75967019	      0.92301980	    -17.47755703	     10.64813724	     15.29523286	     64.84534598
      1.52916670	    -40.27211531	      1.95073028	      3.29186454	     -0.98103807	      1.09350433	     -0.09840217	     74.47555660	     -1.82601771	      9.30439790	     58.50495353	      1.02110407	     20.68974506	    -21.95593014	     -7.49999987	     75.05966538	      6.71606349	      5.75515689	     59.52008968	      1.03882154	     13.67606306	    -25.17347035	     -7.49999987	     -8.61486958	      2.65232975	     -3.67459769	     -3.85578221	    -17.29998619	     -7.74065650	     24.86025152	     74.10799321	     -1.18869263	    -17.93146169	     10.32526778	     15.46705099	     64.50955136
      1.53333330	    -40.60205421	      2.14236436	      3.25239855	     -0.98353475	      1.09085175	     -0.09938279	     75.28660499	     -1.82084485	      9.57273318	     59.27472499	      1.03453911	     20.97099388	    -22.07777745	     -7.49999987	     75.55866649	      6.74635318	      5.51183111	     59.86993438	      1.04492748	     14.44533031	    -24.73645731	     -7.49999987	     -8.26432823	      2.45180063	     -3.64303330	     -5.37924030	    -17.34717731	     -8.28323115	     24.55832368	     73.33705168	     -3.03636040	    -18.40774178	     10.51364410	     15.46805043	     64.17467876
